<?xml version="1.0" encoding="utf-8"?>
<!-- Generator: Adobe Illustrator 18.1.0, SVG Export Plug-In . SVG Version: 6.00 Build 0)  -->
<!DOCTYPE svg PUBLIC "-//W3C//DTD SVG 1.1//EN" "http://www.w3.org/Graphics/SVG/1.1/DTD/svg11.dtd">
<svg version="1.1" id="Layer_1" xmlns="http://www.w3.org/2000/svg" xmlns:xlink="http://www.w3.org/1999/xlink" x="0px" y="0px"
	 viewBox="0 0 180 180" enable-background="new 0 0 180 180" xml:space="preserve">
<g>
	<path fill="#222222" d="M48.1,29.6c-0.3,0.5-0.6,0.9-1,1.1c-0.3,0.2-0.8,0.4-1.3,0.4c-0.5,0-1-0.1-1.5-0.4c-0.5-0.3-1.2-0.6-1.8-1
		c-0.7-0.4-1.5-0.7-2.3-1c-0.9-0.3-1.9-0.4-3-0.4c-1.9,0-3.4,0.4-4.3,1.2c-0.9,0.8-1.4,1.9-1.4,3.4c0,0.9,0.3,1.6,0.9,2.2
		c0.6,0.6,1.3,1.1,2.2,1.5c0.9,0.4,2,0.8,3.2,1.2c1.2,0.4,2.4,0.8,3.7,1.2c1.2,0.4,2.5,1,3.7,1.5c1.2,0.6,2.3,1.3,3.2,2.3
		c0.9,0.9,1.7,2,2.2,3.4c0.6,1.3,0.9,2.9,0.9,4.8c0,2.1-0.4,4-1.1,5.8c-0.7,1.8-1.7,3.4-3.1,4.7c-1.4,1.3-3,2.4-5,3.2
		c-2,0.8-4.2,1.1-6.8,1.1c-1.4,0-2.8-0.1-4.2-0.4c-1.4-0.3-2.8-0.7-4.2-1.2c-1.3-0.5-2.6-1.1-3.8-1.9c-1.2-0.7-2.2-1.5-3.1-2.4
		l3.1-4.8c0.2-0.4,0.5-0.7,0.9-0.9c0.4-0.2,0.8-0.3,1.3-0.3c0.6,0,1.2,0.2,1.9,0.6c0.6,0.4,1.3,0.8,2.1,1.3c0.8,0.5,1.7,0.9,2.7,1.3
		c1,0.4,2.2,0.6,3.6,0.6c1.9,0,3.3-0.4,4.4-1.2c1-0.8,1.6-2.1,1.6-3.9c0-1-0.3-1.9-0.9-2.5c-0.6-0.7-1.3-1.2-2.2-1.6
		c-0.9-0.4-2-0.8-3.2-1.1c-1.2-0.3-2.4-0.7-3.6-1.1c-1.2-0.4-2.5-0.9-3.6-1.5c-1.2-0.6-2.2-1.3-3.2-2.3c-0.9-1-1.7-2.1-2.2-3.6
		c-0.6-1.4-0.9-3.2-0.9-5.3c0-1.7,0.3-3.3,1-4.9c0.7-1.6,1.7-3,3-4.3c1.3-1.2,2.9-2.2,4.8-3c1.9-0.7,4.1-1.1,6.5-1.1
		c1.4,0,2.7,0.1,4,0.3c1.3,0.2,2.5,0.5,3.7,1c1.2,0.4,2.2,0.9,3.3,1.5c1,0.6,1.9,1.2,2.7,2L48.1,29.6z"/>
	<path fill="#222222" d="M86.3,53.6c0.2,0,0.5,0,0.7,0.1c0.2,0.1,0.5,0.3,0.7,0.5l4.1,4.3c-1.8,2.4-4,4.1-6.7,5.3
		c-2.7,1.2-5.9,1.8-9.6,1.8c-3.4,0-6.4-0.6-9.1-1.7c-2.7-1.2-5-2.7-6.8-4.8c-1.9-2-3.3-4.4-4.3-7.2c-1-2.8-1.5-5.8-1.5-9.1
		c0-3.3,0.6-6.4,1.7-9.2c1.1-2.8,2.7-5.2,4.8-7.2c2-2,4.5-3.6,7.4-4.7c2.9-1.1,6-1.7,9.4-1.7c1.7,0,3.2,0.1,4.7,0.4
		c1.5,0.3,2.9,0.7,4.1,1.2c1.3,0.5,2.5,1.1,3.5,1.9c1.1,0.7,2,1.5,2.9,2.4l-3.5,4.7c-0.2,0.3-0.5,0.5-0.8,0.8
		c-0.3,0.2-0.7,0.4-1.3,0.4c-0.4,0-0.7-0.1-1-0.2c-0.3-0.2-0.7-0.4-1-0.6c-0.4-0.2-0.8-0.5-1.2-0.8c-0.4-0.3-1-0.5-1.6-0.8
		c-0.6-0.2-1.3-0.4-2.1-0.6c-0.8-0.2-1.7-0.2-2.8-0.2c-1.9,0-3.6,0.3-5.1,1c-1.5,0.7-2.9,1.6-4,2.9c-1.1,1.2-2,2.7-2.6,4.5
		c-0.6,1.8-0.9,3.7-0.9,5.9c0,2.3,0.3,4.3,0.9,6.1c0.6,1.8,1.5,3.3,2.5,4.5c1.1,1.2,2.3,2.1,3.7,2.8c1.4,0.6,3,1,4.6,1
		c0.9,0,1.8,0,2.6-0.1c0.8-0.1,1.5-0.3,2.2-0.5c0.7-0.2,1.3-0.5,1.9-0.9c0.6-0.4,1.2-0.8,1.8-1.3c0.2-0.2,0.5-0.4,0.8-0.5
		C85.7,53.7,86,53.6,86.3,53.6z"/>
	<path fill="#222222" d="M135.5,65.2h-10.4V46.3H107v18.9H96.6V20.5H107v18.7h18.1V20.5h10.4V65.2z"/>
	<path fill="#222222" d="M44,94.8c0.4,0.8,0.7,1.7,1.1,2.6c0.3-0.9,0.7-1.8,1.1-2.6c0.4-0.8,0.8-1.7,1.2-2.5l11.4-22.6
		c0.2-0.4,0.4-0.7,0.6-0.9c0.2-0.2,0.5-0.4,0.7-0.5c0.3-0.1,0.6-0.2,0.9-0.2c0.3,0,0.7,0,1.2,0h7.9v44.6H61V87.1
		c0-1.2,0.1-2.6,0.2-4l-11.8,23c-0.4,0.7-0.9,1.3-1.5,1.6c-0.6,0.4-1.3,0.6-2.1,0.6h-1.4c-0.8,0-1.5-0.2-2.1-0.6
		c-0.6-0.4-1.1-0.9-1.5-1.6l-11.9-23c0.1,0.7,0.1,1.4,0.2,2.1c0,0.7,0.1,1.4,0.1,1.9v25.7H20V68.2h7.9c0.4,0,0.8,0,1.2,0
		c0.3,0,0.6,0.1,0.9,0.2c0.3,0.1,0.5,0.3,0.7,0.5c0.2,0.2,0.4,0.5,0.6,0.9l11.5,22.7C43.2,93.2,43.6,94,44,94.8z"/>
	<path fill="#222222" d="M121.4,90.5c0,3.2-0.6,6.2-1.7,9c-1.1,2.8-2.7,5.2-4.7,7.3c-2,2.1-4.4,3.7-7.3,4.8c-2.8,1.2-6,1.7-9.5,1.7
		c-3.5,0-6.6-0.6-9.5-1.7c-2.9-1.2-5.3-2.8-7.3-4.8c-2-2.1-3.6-4.5-4.7-7.3c-1.1-2.8-1.7-5.8-1.7-9c0-3.2,0.6-6.2,1.7-9
		c1.1-2.8,2.7-5.2,4.7-7.2c2-2,4.5-3.6,7.3-4.8c2.9-1.2,6-1.7,9.5-1.7c3.5,0,6.6,0.6,9.5,1.8c2.8,1.2,5.3,2.8,7.3,4.8
		c2,2,3.6,4.5,4.7,7.2C120.9,84.3,121.4,87.3,121.4,90.5z M110.8,90.5c0-2.2-0.3-4.2-0.9-6c-0.6-1.8-1.4-3.3-2.5-4.5
		c-1.1-1.2-2.4-2.2-3.9-2.8c-1.5-0.7-3.3-1-5.3-1c-2,0-3.8,0.3-5.3,1c-1.6,0.7-2.9,1.6-3.9,2.8c-1.1,1.2-1.9,2.7-2.5,4.5
		c-0.6,1.8-0.9,3.8-0.9,6c0,2.2,0.3,4.2,0.9,6c0.6,1.8,1.4,3.3,2.5,4.5c1.1,1.2,2.4,2.2,3.9,2.8c1.6,0.6,3.3,1,5.3,1
		c2,0,3.7-0.3,5.3-1c1.5-0.6,2.9-1.6,3.9-2.8c1.1-1.2,1.9-2.7,2.5-4.5C110.5,94.7,110.8,92.7,110.8,90.5z"/>
	<path fill="#222222" d="M136.7,97.9v14.9h-10.3V68.2h15.7c3.1,0,5.8,0.4,8.1,1.1c2.3,0.7,4.1,1.8,5.6,3.1c1.5,1.3,2.5,2.9,3.2,4.6
		c0.7,1.8,1,3.7,1,5.8c0,2.2-0.4,4.3-1.1,6.1c-0.7,1.9-1.8,3.5-3.3,4.8c-1.5,1.3-3.3,2.4-5.6,3.1c-2.3,0.7-4.9,1.1-8,1.1H136.7z
		 M136.7,90.1h5.4c2.7,0,4.6-0.6,5.8-1.9c1.2-1.3,1.8-3.1,1.8-5.4c0-1-0.2-2-0.5-2.8c-0.3-0.8-0.8-1.6-1.4-2.2
		c-0.6-0.6-1.4-1.1-2.4-1.4c-0.9-0.3-2.1-0.5-3.4-0.5h-5.4V90.1z"/>
	<path fill="#222222" d="M48.7,115.3v8H30.4v10.4h14v7.7h-14V152h18.3v8H20v-44.7H48.7z"/>
	<path fill="#222222" d="M64.9,143.5V160H54.6v-44.7h14.5c3.2,0,6,0.3,8.2,1c2.3,0.7,4.1,1.6,5.6,2.8c1.4,1.2,2.5,2.6,3.1,4.2
		c0.7,1.6,1,3.4,1,5.3c0,1.5-0.2,2.8-0.6,4.1c-0.4,1.3-1,2.5-1.7,3.6c-0.8,1.1-1.7,2.1-2.8,2.9c-1.1,0.9-2.4,1.6-3.8,2.1
		c0.7,0.3,1.3,0.8,1.9,1.3c0.6,0.5,1.1,1.1,1.6,1.9L91,160h-9.4c-1.7,0-3-0.7-3.7-2l-7.4-13c-0.3-0.6-0.7-1-1.1-1.2
		c-0.4-0.2-1.1-0.4-1.8-0.4H64.9z M64.9,136.3h4.2c1.4,0,2.6-0.2,3.6-0.5c1-0.4,1.8-0.9,2.4-1.5c0.6-0.6,1.1-1.4,1.4-2.2
		c0.3-0.8,0.4-1.8,0.4-2.7c0-2-0.6-3.5-1.9-4.6c-1.3-1.1-3.2-1.7-5.9-1.7h-4.2V136.3z"/>
	<path fill="#222222" d="M136.7,160h-8c-0.9,0-1.6-0.2-2.2-0.6c-0.6-0.4-1-1-1.2-1.6l-2.6-7.8h-16.9l-2.6,7.8
		c-0.2,0.6-0.6,1.1-1.2,1.5c-0.6,0.5-1.3,0.7-2.2,0.7h-8.1l17.2-44.7h10.6L136.7,160z M108.1,142.9h12.2l-4.1-12.2
		c-0.3-0.8-0.6-1.7-0.9-2.7c-0.4-1.1-0.7-2.2-1.1-3.4c-0.3,1.2-0.7,2.4-1,3.5c-0.3,1.1-0.7,2-1,2.8L108.1,142.9z"/>
</g>
<rect x="5" y="5" fill="none" stroke="#FFFFFF" stroke-width="10" stroke-miterlimit="10" width="170" height="170"/>
</svg>
