<?xml version="1.0" encoding="UTF-8" standalone="no"?>
<svg width="279px" height="83px" viewBox="0 0 279 83" version="1.1" xmlns="http://www.w3.org/2000/svg" xmlns:xlink="http://www.w3.org/1999/xlink">
    <!-- Generator: Sketch 46.2 (44496) - http://www.bohemiancoding.com/sketch -->
    <title>logo-rectangle-coloured</title>
    <desc>Created with Sketch.</desc>
    <defs></defs>
    <g id="Page-1" stroke="none" stroke-width="1" fill="none" fill-rule="evenodd">
        <g id="logo-rectangle-coloured" transform="translate(4.000000, 4.000000)">
            <rect id="Rectangle-path" stroke="#02A8E0" stroke-width="7" x="0" y="0" width="75" height="75"></rect>
            <rect id="Rectangle" fill="#FFFFFF" x="65" y="17" width="19" height="41"></rect>
            <g id="Group-Copy" transform="translate(20.750000, 22.000000)" fill-rule="nonzero" fill="#222222">
                <path d="M18.4217252,6.33626374 C18.2236422,6.67692308 18.0255591,6.94945055 17.7614483,7.08571429 C17.5633653,7.22197802 17.2332268,7.35824176 16.9030884,7.35824176 C16.5729499,7.35824176 16.2428115,7.29010989 15.9126731,7.08571429 C15.5825346,6.88131868 15.1203408,6.67692308 14.7241747,6.4043956 C14.2619808,6.13186813 13.7337593,5.92747253 13.2055378,5.72307692 C12.6112886,5.51868132 11.9510117,5.45054945 11.2247071,5.45054945 C9.97018104,5.45054945 8.97976571,5.72307692 8.38551651,6.26813187 C7.79126731,6.81318681 7.46112886,7.56263736 7.46112886,8.58461538 C7.46112886,9.1978022 7.65921193,9.67472527 8.05537806,10.0835165 C8.4515442,10.4923077 8.91373802,10.832967 9.50798722,11.1054945 C10.1022364,11.378022 10.828541,11.6505495 11.6208733,11.9230769 C12.4132055,12.1956044 13.2055378,12.4681319 14.0638978,12.7406593 C14.85623,13.0131868 15.71459,13.421978 16.5069223,13.7626374 C17.2992545,14.1714286 18.0255591,14.6483516 18.6198083,15.3296703 C19.2140575,15.9428571 19.742279,16.6923077 20.0724175,17.6461538 C20.4685836,18.5318681 20.6666667,19.621978 20.6666667,20.9164835 C20.6666667,22.3472527 20.4025559,23.6417582 19.9403621,24.8681319 C19.4781683,26.0945055 18.8178914,27.1846154 17.8935037,28.0703297 C16.9691161,28.956044 15.9126731,29.7054945 14.5921193,30.2505495 C13.2715655,30.7956044 11.8189563,31 10.1022364,31 C9.17784878,31 8.25346113,30.9318681 7.32907348,30.7274725 C6.40468584,30.5230769 5.48029819,30.2505495 4.55591054,29.9098901 C3.69755059,29.5692308 2.83919063,29.1604396 2.04685836,28.6153846 C1.25452609,28.1384615 0.594249201,27.5934066 0,26.9802198 L2.04685836,23.7098901 C2.17891374,23.4373626 2.37699681,23.232967 2.64110756,23.0967033 C2.90521832,22.9604396 3.16932907,22.8923077 3.49946752,22.8923077 C3.89563365,22.8923077 4.29179979,23.0285714 4.75399361,23.3010989 C5.15015974,23.5736264 5.61235357,23.8461538 6.14057508,24.1868132 C6.66879659,24.5274725 7.26304579,24.8 7.92332268,25.0725275 C8.58359957,25.3450549 9.37593184,25.4813187 10.3003195,25.4813187 C11.5548456,25.4813187 12.4792332,25.2087912 13.2055378,24.6637363 C13.8658147,24.1186813 14.2619808,23.232967 14.2619808,22.0065934 C14.2619808,21.3252747 14.0638978,20.7120879 13.6677316,20.3032967 C13.2715655,19.8263736 12.8093717,19.4857143 12.2151225,19.2131868 C11.6208733,18.9406593 10.8945687,18.6681319 10.1022364,18.4637363 C9.30990415,18.2593407 8.51757188,17.9868132 7.72523962,17.7142857 C6.93290735,17.4417582 6.07454739,17.1010989 5.34824281,16.6923077 C4.55591054,16.2835165 3.89563365,15.8065934 3.23535676,15.1252747 C2.64110756,14.443956 2.11288605,13.6945055 1.7827476,12.6725275 C1.38658147,11.7186813 1.1884984,10.4923077 1.1884984,9.06153846 C1.1884984,7.9032967 1.38658147,6.81318681 1.84877529,5.72307692 C2.31096912,4.63296703 2.97124601,3.67912088 3.82960596,2.79340659 C4.68796592,1.97582418 5.74440895,1.29450549 6.99893504,0.749450549 C8.25346113,0.272527473 9.70607029,0 11.2907348,0 C12.2151225,0 13.0734824,0.0681318681 13.9318424,0.204395604 C14.7902023,0.340659341 15.5825346,0.545054945 16.3748669,0.885714286 C17.1671991,1.15824176 17.827476,1.4989011 18.5537806,1.90769231 C19.2140575,2.31648352 19.8083067,2.72527473 20.3365282,3.27032967 L18.4217252,6.33626374 Z" id="Shape"></path>
                <path d="M44.7493113,22.8421053 C44.8859504,22.8421053 45.0909091,22.8421053 45.2275482,22.9100877 C45.3641873,22.9780702 45.569146,23.1140351 45.7057851,23.25 L48.5068871,26.1732456 C47.277135,27.8048246 45.7741047,28.9605263 43.9294766,29.7763158 C42.0848485,30.5921053 39.8986226,31 37.3707989,31 C35.0479339,31 32.9983471,30.5921053 31.153719,29.8442982 C29.3090909,29.0285088 27.737741,28.0087719 26.507989,26.5811404 C25.2099174,25.2214912 24.2534435,23.5899123 23.5702479,21.6864035 C22.8870523,19.7828947 22.5454545,17.7434211 22.5454545,15.5 C22.5454545,13.2565789 22.9553719,11.1491228 23.7068871,9.24561404 C24.4584022,7.34210526 25.5515152,5.71052632 26.9862259,4.35087719 C28.3526171,2.99122807 30.0606061,1.90350877 32.0418733,1.15570175 C34.0231405,0.407894737 36.1410468,0 38.4639118,0 C39.6253444,0 40.6501377,0.0679824561 41.6749311,0.271929825 C42.6997245,0.475877193 43.6561983,0.747807018 44.4760331,1.0877193 C45.3641873,1.42763158 46.184022,1.83552632 46.8672176,2.37938596 C47.6187328,2.85526316 48.2336088,3.39912281 48.8484848,4.01096491 L46.4573003,7.20614035 C46.3206612,7.41008772 46.1157025,7.54605263 45.9107438,7.75 C45.7057851,7.88596491 45.4325069,8.02192982 45.0225895,8.02192982 C44.7493113,8.02192982 44.5443526,7.95394737 44.3393939,7.88596491 C44.1344353,7.75 43.861157,7.61403509 43.6561983,7.47807018 C43.3829201,7.34210526 43.1096419,7.13815789 42.8363636,6.93421053 C42.5630854,6.73026316 42.153168,6.59429825 41.7432507,6.39035088 C41.3333333,6.25438596 40.8550964,6.11842105 40.3085399,5.98245614 C39.7619835,5.84649123 39.1471074,5.84649123 38.3955923,5.84649123 C37.0975207,5.84649123 35.9360882,6.0504386 34.9112948,6.52631579 C33.8865014,7.00219298 32.9300275,7.61403509 32.1785124,8.49780702 C31.4269972,9.31359649 30.8121212,10.3333333 30.4022039,11.5570175 C29.9922865,12.7807018 29.7873278,14.0723684 29.7873278,15.5679825 C29.7873278,17.1315789 29.9922865,18.4912281 30.4022039,19.7149123 C30.8121212,20.9385965 31.4269972,21.9583333 32.1101928,22.7741228 C32.861708,23.5899123 33.6815427,24.2017544 34.6380165,24.6776316 C35.5944904,25.0855263 36.6876033,25.3574561 37.7807163,25.3574561 C38.3955923,25.3574561 39.0104683,25.3574561 39.5570248,25.2894737 C40.1035813,25.2214912 40.5818182,25.0855263 41.0600551,24.9495614 C41.538292,24.8135965 41.9482094,24.6096491 42.3581267,24.3377193 C42.7680441,24.0657895 43.1779614,23.7938596 43.5878788,23.4539474 C43.7245179,23.3179825 43.9294766,23.1820175 44.1344353,23.1140351 C44.3393939,22.9100877 44.5443526,22.8421053 44.7493113,22.8421053 Z" id="Shape"></path>
                <polygon id="Shape" points="77.030303 30.0606061 69.9981304 30.0606061 69.9981304 17.3504169 57.7594454 17.3504169 57.7594454 30.0606061 50.7272727 30.0606061 50.7272727 0 57.7594454 0 57.7594454 12.5756898 69.9981304 12.5756898 69.9981304 0 77.030303 0"></polygon>
                <path d="M95.5988024,17.955664 C95.8613077,18.4936614 96.0581867,19.0989085 96.3206919,19.7041557 C96.5175709,19.0989085 96.7800762,18.4936614 97.0425815,17.955664 C97.3050868,17.4176666 97.5675921,16.8124195 97.8300974,16.2744221 L105.311498,1.07599485 C105.442751,0.806996136 105.574004,0.605247102 105.705256,0.470747746 C105.836509,0.33624839 106.033388,0.201749034 106.16464,0.134499356 C106.361519,0.067249678 106.558398,2.38918851e-15 106.755277,2.38918851e-15 C106.952156,2.38918851e-15 107.214662,2.38918851e-15 107.542793,2.38918851e-15 L112.727273,2.38918851e-15 L112.727273,29.9933564 L106.755277,29.9933564 L106.755277,12.7774388 C106.755277,11.9704427 106.820904,11.0289472 106.88653,10.0874517 L99.1426238,25.5548776 C98.8801186,26.0256254 98.5519869,26.4291234 98.158229,26.6308725 C97.7644711,26.8998712 97.3050868,27.0343706 96.7800762,27.0343706 L95.8613077,27.0343706 C95.3362971,27.0343706 94.8769128,26.8998712 94.4831549,26.6308725 C94.089397,26.3618738 93.7612653,26.0256254 93.4987601,25.5548776 L85.6892276,10.0874517 C85.7548539,10.5581994 85.7548539,11.0289472 85.8204803,11.4996949 C85.8204803,11.9704427 85.8861066,12.4411904 85.8861066,12.7774388 L85.8861066,30.0606061 L79.8484848,30.0606061 L79.8484848,0 L85.0329644,0 C85.2954697,0 85.557975,0 85.8204803,0 C86.0173592,0 86.2142382,0.067249678 86.4111172,0.134499356 C86.6079961,0.201749034 86.7392488,0.33624839 86.8705014,0.470747746 C87.0017541,0.605247102 87.1330067,0.806996136 87.2642594,1.07599485 L94.8112865,16.3416718 C95.0737918,16.8124195 95.3362971,17.3504169 95.5988024,17.955664 Z" id="Shape"></path>
                <path d="M147.484848,15.4659341 C147.484848,17.6461538 147.083986,19.6901099 146.349073,21.5978022 C145.614159,23.5054945 144.545193,25.1406593 143.208986,26.5714286 C141.87278,28.0021978 140.269331,29.0923077 138.331831,29.8417582 C136.461142,30.6593407 134.323211,31 131.984848,31 C129.646486,31 127.575366,30.5912088 125.637866,29.8417582 C123.700366,29.0241758 122.096917,27.9340659 120.760711,26.5714286 C119.424504,25.1406593 118.355538,23.5054945 117.620624,21.5978022 C116.885711,19.6901099 116.484848,17.6461538 116.484848,15.4659341 C116.484848,13.2857143 116.885711,11.2417582 117.620624,9.33406593 C118.355538,7.42637363 119.424504,5.79120879 120.760711,4.42857143 C122.096917,3.06593407 123.767176,1.97582418 125.637866,1.15824176 C127.575366,0.340659341 129.646486,0 131.984848,0 C134.323211,0 136.394331,0.408791209 138.331831,1.22637363 C140.202521,2.04395604 141.87278,3.13406593 143.208986,4.4967033 C144.545193,5.85934066 145.614159,7.56263736 146.349073,9.4021978 C147.150797,11.2417582 147.484848,13.2857143 147.484848,15.4659341 Z M140.402952,15.4659341 C140.402952,13.967033 140.202521,12.6043956 139.801659,11.378022 C139.400797,10.1516484 138.866314,9.12967033 138.1314,8.31208791 C137.396486,7.49450549 136.527952,6.81318681 135.525797,6.4043956 C134.523642,5.92747253 133.321055,5.72307692 131.984848,5.72307692 C130.648642,5.72307692 129.446055,5.92747253 128.4439,6.4043956 C127.374935,6.88131868 126.5064,7.49450549 125.838297,8.31208791 C125.103383,9.12967033 124.5689,10.1516484 124.168038,11.378022 C123.767176,12.6043956 123.566745,13.967033 123.566745,15.4659341 C123.566745,16.9648352 123.767176,18.3274725 124.168038,19.5538462 C124.5689,20.7802198 125.103383,21.8021978 125.838297,22.6197802 C126.573211,23.4373626 127.441745,24.1186813 128.4439,24.5274725 C129.512866,24.9362637 130.648642,25.2087912 131.984848,25.2087912 C133.321055,25.2087912 134.456831,25.0043956 135.525797,24.5274725 C136.527952,24.1186813 137.463297,23.4373626 138.1314,22.6197802 C138.866314,21.8021978 139.400797,20.7802198 139.801659,19.5538462 C140.202521,18.3274725 140.402952,16.9648352 140.402952,15.4659341 Z" id="Shape"></path>
                <path d="M157.214286,20.0179372 L157.214286,30.0606061 L150.30303,30.0606061 L150.30303,0 L160.837662,0 C162.917749,0 164.729437,0.269601848 166.272727,0.741405082 C167.816017,1.21320832 169.02381,1.9546134 170.030303,2.8308194 C171.036797,3.70702541 171.707792,4.7854328 172.177489,5.93124066 C172.647186,7.14444897 172.848485,8.42505775 172.848485,9.84046745 C172.848485,11.3232776 172.580087,12.7386873 172.11039,13.9518956 C171.640693,15.2325044 170.902597,16.3109118 169.896104,17.1871178 C168.88961,18.0633238 167.681818,18.8047289 166.138528,19.2765321 C164.595238,19.7483354 162.850649,20.0179372 160.770563,20.0179372 L157.214286,20.0179372 Z M157.214286,14.7607012 L160.837662,14.7607012 C162.649351,14.7607012 163.924242,14.3562984 164.729437,13.4800924 C165.534632,12.6038864 165.937229,11.3906781 165.937229,9.84046745 C165.937229,9.16646283 165.80303,8.49245821 165.601732,7.95325452 C165.400433,7.41405082 165.064935,6.87484713 164.662338,6.47044435 C164.25974,6.06604158 163.722944,5.72903927 163.051948,5.52683789 C162.448052,5.3246365 161.642857,5.18983558 160.770563,5.18983558 L157.147186,5.18983558 L157.147186,14.7607012 L157.214286,14.7607012 Z" id="Shape"></path>
                <polygon id="Shape" points="195.393939 0 195.393939 5.37997424 182.815225 5.37997424 182.815225 12.3739407 192.438285 12.3739407 192.438285 17.552166 182.815225 17.552166 182.815225 24.6806318 195.393939 24.6806318 195.393939 30.0606061 175.666667 30.0606061 175.666667 0"></polygon>
                <path d="M206.043836,18.9644092 L206.043836,30.0606061 L199.151515,30.0606061 L199.151515,0 L208.854296,0 C210.9956,0 212.86924,0.201749034 214.341386,0.67249678 C215.880448,1.14324453 217.084932,1.74849163 218.088667,2.55548776 C219.025488,3.3624839 219.761561,4.30397939 220.163055,5.37997424 C220.631465,6.45596909 220.832213,7.66646329 220.832213,8.94420717 C220.832213,9.95295234 220.698381,10.8271982 220.430718,11.701444 C220.163055,12.5756898 219.761561,13.3826859 219.293151,14.1224324 C218.757825,14.8621788 218.155583,15.5346756 217.41951,16.072673 C216.683437,16.6779201 215.813533,17.1486679 214.876712,17.4849163 C215.345122,17.6866653 215.746617,18.0229137 216.148111,18.3591621 C216.549606,18.6954105 216.884184,19.0989085 217.218763,19.636906 L223.575758,30.0606061 L217.285679,30.0606061 C216.148111,30.0606061 215.278207,29.5898583 214.809797,28.7156125 L209.858032,19.9731544 C209.657285,19.5696563 209.389622,19.3006576 209.121959,19.1661582 C208.854296,19.0316589 208.385886,18.8971595 207.917476,18.8971595 L206.043836,18.8971595 L206.043836,18.9644092 Z M206.043836,14.1224324 L208.854296,14.1224324 C209.791117,14.1224324 210.594105,13.987933 211.263263,13.786184 C211.93242,13.5171853 212.467746,13.1809369 212.86924,12.7774388 C213.270735,12.3739407 213.605313,11.8359433 213.806061,11.2979459 C214.006808,10.7599485 214.073724,10.0874517 214.073724,9.4822046 C214.073724,8.13721104 213.672229,7.12846587 212.802325,6.38871941 C211.93242,5.64897295 210.661021,5.24547488 208.854296,5.24547488 L206.043836,5.24547488 L206.043836,14.1224324 Z" id="Shape"></path>
                <path d="M253.636364,30.0606061 L248.292256,30.0606061 C247.691044,30.0606061 247.223434,29.9261067 246.822626,29.657108 C246.421818,29.3881093 246.154613,28.9846112 246.02101,28.5811131 L244.284175,23.3356383 L232.994747,23.3356383 L231.257912,28.5811131 C231.12431,28.9846112 230.857104,29.3208596 230.456296,29.5898583 C230.055488,29.9261067 229.587879,30.0606061 228.986667,30.0606061 L223.575758,30.0606061 L235.065589,0 L242.146532,0 L253.636364,30.0606061 Z M234.531178,18.5609111 L242.680943,18.5609111 L239.942088,10.3564504 C239.741684,9.81845299 239.541279,9.21320588 239.340875,8.5407091 C239.07367,7.80096265 238.873266,7.06121619 238.606061,6.25422005 C238.405657,7.06121619 238.138451,7.86821232 237.938047,8.60795878 C237.737643,9.34770524 237.470438,9.95295234 237.270034,10.4909498 L234.531178,18.5609111 Z" id="Shape"></path>
            </g>
        </g>
    </g>
</svg>